{
  "accessors": [
    {
      "bufferView": 2,
      "componentType": 5126,
      "count": 40726,
      "max": [
        1.4374462366104126,
        3.720940351486206,
        2.7459492683410645
      ],
      "min": [
        -1.4374462366104126,
        -3.0357508659362793,
        -0.0009607035317458212
      ],
      "type": "VEC3"
    },
    {
      "bufferView": 2,
      "byteOffset": 488712,
      "componentType": 5126,
      "count": 40726,
      "max": [
        1.0,
        1.0,
        1.0
      ],
      "min": [
        -1.0,
        -1.0,
        -1.0
      ],
      "type": "VEC3"
    },
    {
      "bufferView": 3,
      "componentType": 5126,
      "count": 40726,
      "max": [
        1.0,
        1.0,
        1.0,
        1.0
      ],
      "min": [
        -1.0,
        -1.0,
        -1.0,
        -1.0
      ],
      "type": "VEC4"
    },
    {
      "bufferView": 1,
      "componentType": 5126,
      "count": 40726,
      "max": [
        0.9973443150520325,
        0.9969664216041565
      ],
      "min": [
        0.0026557473465800285,
        0.0026557473465800285
      ],
      "type": "VEC2"
    },
    {
      "bufferView": 0,
      "componentType": 5125,
      "count": 170544,
      "type": "SCALAR"
    },
    {
      "bufferView": 2,
      "byteOffset": 977424,
      "componentType": 5126,
      "count": 799,
      "max": [
        1.1234617233276367,
        2.553293466567993,
        2.6264753341674805
      ],
      "min": [
        -1.1234617233276367,
        -1.1454596519470215,
        1.8961951732635498
      ],
      "type": "VEC3"
    },
    {
      "bufferView": 2,
      "byteOffset": 987012,
      "componentType": 5126,
      "count": 799,
      "max": [
        0.9998928308486938,
        0.8109028935432434,
        0.7221116423606873
      ],
      "min": [
        -0.9998928308486938,
        -0.8395740389823914,
        -0.604805588722229
      ],
      "type": "VEC3"
    },
    {
      "bufferView": 1,
      "byteOffset": 325808,
      "componentType": 5126,
      "count": 799,
      "max": [
        0.9995100498199463,
        0.978428304195404
      ],
      "min": [
        0.0004899472696706653,
        0.0004899472696706653
      ],
      "type": "VEC2"
    },
    {
      "bufferView": 0,
      "byteOffset": 682176,
      "componentType": 5125,
      "count": 3912,
      "type": "SCALAR"
    },
    {
      "bufferView": 2,
      "byteOffset": 996600,
      "componentType": 5126,
      "count": 23800,
      "max": [
        1.0532554388046265,
        2.2408900260925293,
        2.2591209411621094
      ],
      "min": [
        -0.9685481786727905,
        -1.6799511909484863,
        0.5424700975418091
      ],
      "type": "VEC3"
    },
    {
      "bufferView": 2,
      "byteOffset": 1282200,
      "componentType": 5126,
      "count": 23800,
      "max": [
        1.0,
        1.0,
        1.0
      ],
      "min": [
        -1.0,
        -1.0,
        -1.0
      ],
      "type": "VEC3"
    },
    {
      "bufferView": 3,
      "byteOffset": 651616,
      "componentType": 5126,
      "count": 23800,
      "max": [
        1.0,
        0.9999976754188538,
        1.0,
        1.0
      ],
      "min": [
        -1.0,
        -1.0,
        -1.0,
        1.0
      ],
      "type": "VEC4"
    },
    {
      "bufferView": 1,
      "byteOffset": 332200,
      "componentType": 5126,
      "count": 23800,
      "max": [
        0.9972778558731079,
        0.9974970817565918
      ],
      "min": [
        0.0025028646923601627,
        0.0025028646923601627
      ],
      "type": "VEC2"
    },
    {
      "bufferView": 0,
      "byteOffset": 697824,
      "componentType": 5125,
      "count": 99288,
      "type": "SCALAR"
    }
  ],
  "asset": {
    "extras": {
      "author": "haricsiko (https://sketchfab.com/haricsiko)",
      "license": "CC-BY-4.0 (http://creativecommons.org/licenses/by/4.0/)",
      "source": "https://sketchfab.com/3d-models/trabant-c39a112a1d8242e5a913141f703f2687",
      "title": "Trabant"
    },
    "generator": "Sketchfab-12.67.0",
    "version": "2.0"
  },
  "bufferViews": [
    {
      "buffer": 0,
      "byteLength": 1094976,
      "name": "floatBufferViews",
      "target": 34963
    },
    {
      "buffer": 0,
      "byteLength": 522600,
      "byteOffset": 1094976,
      "byteStride": 8,
      "name": "floatBufferViews",
      "target": 34962
    },
    {
      "buffer": 0,
      "byteLength": 1567800,
      "byteOffset": 1617576,
      "byteStride": 12,
      "name": "floatBufferViews",
      "target": 34962
    },
    {
      "buffer": 0,
      "byteLength": 1032416,
      "byteOffset": 3185376,
      "byteStride": 16,
      "name": "floatBufferViews",
      "target": 34962
    }
  ],
  "buffers": [
    {
      "byteLength": 4217792,
      "uri": "scene.bin"
    }
  ],
  "images": [
    {
      "uri": "textures/TrabantOutside_baseColor.png"
    },
    {
      "uri": "textures/TrabantOutside_metallicRoughness.png"
    },
    {
      "uri": "textures/TrabantOutside_normal.png"
    },
    {
      "uri": "textures/TrabantInside_baseColor.png"
    },
    {
      "uri": "textures/TrabantInside_metallicRoughness.png"
    },
    {
      "uri": "textures/TrabantInside_normal.png"
    }
  ],
  "materials": [
    {
      "doubleSided": true,
      "name": "TrabantOutside",
      "normalTexture": {
        "index": 2
      },
      "occlusionTexture": {
        "index": 1
      },
      "pbrMetallicRoughness": {
        "baseColorTexture": {
          "index": 0
        },
        "metallicRoughnessTexture": {
          "index": 1
        }
      }
    },
    {
      "alphaMode": "BLEND",
      "doubleSided": true,
      "name": "Glass",
      "pbrMetallicRoughness": {
        "baseColorFactor": [
          0.8,
          0.8,
          0.8,
          0.22667645574545964
        ],
        "metallicFactor": 0.0,
        "roughnessFactor": 0.8211145618000169
      }
    },
    {
      "doubleSided": true,
      "name": "TrabantInside",
      "normalTexture": {
        "index": 5
      },
      "occlusionTexture": {
        "index": 4
      },
      "pbrMetallicRoughness": {
        "baseColorTexture": {
          "index": 3
        },
        "metallicRoughnessTexture": {
          "index": 4
        }
      }
    }
  ],
  "meshes": [
    {
      "name": "Plane.010_TrabantOutside_0",
      "primitives": [
        {
          "attributes": {
            "NORMAL": 1,
            "POSITION": 0,
            "TANGENT": 2,
            "TEXCOORD_0": 3
          },
          "indices": 4,
          "material": 0,
          "mode": 4
        }
      ]
    },
    {
      "name": "Plane.010_Glass_0",
      "primitives": [
        {
          "attributes": {
            "NORMAL": 6,
            "POSITION": 5,
            "TEXCOORD_0": 7
          },
          "indices": 8,
          "material": 1,
          "mode": 4
        }
      ]
    },
    {
      "name": "Cube.003_TrabantInside_0",
      "primitives": [
        {
          "attributes": {
            "NORMAL": 10,
            "POSITION": 9,
            "TANGENT": 11,
            "TEXCOORD_0": 12
          },
          "indices": 13,
          "material": 2,
          "mode": 4
        }
      ]
    }
  ],
  "nodes": [
    {
      "children": [
        1
      ],
      "matrix": [
        1.0,
        0.0,
        0.0,
        0.0,
        0.0,
        2.220446049250313e-16,
        -1.0,
        0.0,
        0.0,
        1.0,
        2.220446049250313e-16,
        0.0,
        0.0,
        0.0,
        0.0,
        1.0
      ],
      "name": "Sketchfab_model"
    },
    {
      "children": [
        2
      ],
      "matrix": [
        1.0,
        0.0,
        0.0,
        0.0,
        0.0,
        0.0,
        1.0,
        0.0,
        0.0,
        -1.0,
        0.0,
        0.0,
        0.0,
        0.0,
        0.0,
        1.0
      ],
      "name": "c4a7b5eea4494ac2b6ff2a0ad14e60ba.fbx"
    },
    {
      "children": [
        3,
        6
      ],
      "name": "RootNode"
    },
    {
      "children": [
        4,
        5
      ],
      "matrix": [
        100.0,
        0.0,
        0.0,
        0.0,
        0.0,
        -1.629206793918314e-05,
        -99.99999999999868,
        0.0,
        0.0,
        99.99999999999868,
        -1.629206793918314e-05,
        0.0,
        0.0,
        0.0,
        0.0,
        1.0
      ],
      "name": "Plane.010"
    },
    {
      "mesh": 0,
      "name": "Plane.010_TrabantOutside_0"
    },
    {
      "mesh": 1,
      "name": "Plane.010_Glass_0"
    },
    {
      "children": [
        7
      ],
      "matrix": [
        100.0,
        0.0,
        0.0,
        0.0,
        0.0,
        -1.629206793918314e-05,
        -99.99999999999868,
        0.0,
        0.0,
        99.99999999999868,
        -1.629206793918314e-05,
        0.0,
        0.0,
        0.0,
        0.0,
        1.0
      ],
      "name": "Cube.003"
    },
    {
      "mesh": 2,
      "name": "Cube.003_TrabantInside_0"
    }
  ],
  "samplers": [
    {
      "magFilter": 9729,
      "minFilter": 9987,
      "wrapS": 10497,
      "wrapT": 10497
    }
  ],
  "scene": 0,
  "scenes": [
    {
      "name": "Sketchfab_Scene",
      "nodes": [
        0
      ]
    }
  ],
  "textures": [
    {
      "sampler": 0,
      "source": 0
    },
    {
      "sampler": 0,
      "source": 1
    },
    {
      "sampler": 0,
      "source": 2
    },
    {
      "sampler": 0,
      "source": 3
    },
    {
      "sampler": 0,
      "source": 4
    },
    {
      "sampler": 0,
      "source": 5
    }
  ]
}
