{
  "accessors": [
    {
      "bufferView": 2,
      "componentType": 5126,
      "count": 1362,
      "max": [
        3.4449949264526367,
        5.128973007202148,
        3.1682486534118652
      ],
      "min": [
        -3.4449949264526367,
        -3.509310245513916,
        -5.176462173461914
      ],
      "type": "VEC3"
    },
    {
      "bufferView": 2,
      "byteOffset": 16344,
      "componentType": 5126,
      "count": 1362,
      "max": [
        0.9999650716781616,
        0.9999786019325256,
        1.0
      ],
      "min": [
        -0.9999650716781616,
        -0.999933123588562,
        -1.0
      ],
      "type": "VEC3"
    },
    {
      "bufferView": 3,
      "componentType": 5126,
      "count": 1362,
      "max": [
        1.0,
        0.9916046261787415,
        0.9982563853263855,
        1.0
      ],
      "min": [
        -1.0,
        -1.0,
        -0.999976634979248,
        -1.0
      ],
      "type": "VEC4"
    },
    {
      "bufferView": 1,
      "componentType": 5126,
      "count": 1362,
      "max": [
        0.9931505918502808,
        0.9983052611351013
      ],
      "min": [
        0.0010217278031632304,
        0.0016521108336746693
      ],
      "type": "VEC2"
    },
    {
      "bufferView": 1,
      "byteOffset": 10896,
      "componentType": 5126,
      "count": 1362,
      "max": [
        0.9931505918502808,
        0.9983052611351013
      ],
      "min": [
        0.0010217278031632304,
        0.0016521108336746693
      ],
      "type": "VEC2"
    },
    {
      "bufferView": 1,
      "byteOffset": 21792,
      "componentType": 5126,
      "count": 1362,
      "max": [
        0.9931505918502808,
        0.9983052611351013
      ],
      "min": [
        0.0010217278031632304,
        0.0016521108336746693
      ],
      "type": "VEC2"
    },
    {
      "bufferView": 1,
      "byteOffset": 32688,
      "componentType": 5126,
      "count": 1362,
      "max": [
        0.9931505918502808,
        0.9983052611351013
      ],
      "min": [
        0.0010217278031632304,
        0.0016521108336746693
      ],
      "type": "VEC2"
    },
    {
      "bufferView": 0,
      "componentType": 5125,
      "count": 2124,
      "type": "SCALAR"
    }
  ],
  "asset": {
    "extras": {
      "author": "Glowbox 3D (https://sketchfab.com/ra3id)",
      "license": "CC-BY-4.0 (http://creativecommons.org/licenses/by/4.0/)",
      "source": "https://sketchfab.com/3d-models/origami-unicorn-from-blade-runner-db71fff4ce64433d975244ac95b807c2",
      "title": "Origami Unicorn from Blade Runner"
    },
    "generator": "Sketchfab-15.42.0",
    "version": "2.0"
  },
  "bufferViews": [
    {
      "buffer": 0,
      "byteLength": 8496,
      "name": "floatBufferViews",
      "target": 34963
    },
    {
      "buffer": 0,
      "byteLength": 43584,
      "byteOffset": 8496,
      "byteStride": 8,
      "name": "floatBufferViews",
      "target": 34962
    },
    {
      "buffer": 0,
      "byteLength": 32688,
      "byteOffset": 52080,
      "byteStride": 12,
      "name": "floatBufferViews",
      "target": 34962
    },
    {
      "buffer": 0,
      "byteLength": 21792,
      "byteOffset": 84768,
      "byteStride": 16,
      "name": "floatBufferViews",
      "target": 34962
    }
  ],
  "buffers": [
    {
      "byteLength": 106560,
      "uri": "scene.bin"
    }
  ],
  "images": [
    {
      "uri": "textures/Material.002_baseColor.png"
    },
    {
      "uri": "textures/Material.002_metallicRoughness.png"
    },
    {
      "uri": "textures/Material.002_normal.png"
    }
  ],
  "materials": [
    {
      "doubleSided": true,
      "name": "Material.002",
      "normalTexture": {
        "index": 2
      },
      "pbrMetallicRoughness": {
        "baseColorTexture": {
          "index": 0
        },
        "metallicRoughnessTexture": {
          "index": 1
        }
      }
    }
  ],
  "meshes": [
    {
      "name": "Object_0",
      "primitives": [
        {
          "attributes": {
            "NORMAL": 1,
            "POSITION": 0,
            "TANGENT": 2,
            "TEXCOORD_0": 3,
            "TEXCOORD_1": 4,
            "TEXCOORD_2": 5,
            "TEXCOORD_3": 6
          },
          "indices": 7,
          "material": 0,
          "mode": 4
        }
      ]
    }
  ],
  "nodes": [
    {
      "children": [
        1
      ],
      "matrix": [
        1.0,
        0.0,
        0.0,
        0.0,
        0.0,
        2.220446049250313e-16,
        -1.0,
        0.0,
        0.0,
        1.0,
        2.220446049250313e-16,
        0.0,
        0.0,
        0.0,
        0.0,
        1.0
      ],
      "name": "Sketchfab_model"
    },
    {
      "children": [
        2
      ],
      "name": "root"
    },
    {
      "children": [
        3
      ],
      "matrix": [
        1.0,
        0.0,
        0.0,
        0.0,
        0.0,
        2.220446049250313e-16,
        1.0,
        0.0,
        0.0,
        -1.0,
        2.220446049250313e-16,
        0.0,
        0.0,
        0.0,
        0.0,
        1.0
      ],
      "name": "GLTF_SceneRootNode"
    },
    {
      "children": [
        4
      ],
      "matrix": [
        0.03942551836371422,
        0.0,
        0.0,
        0.0,
        0.0,
        0.21776489971709825,
        0.05711605238912066,
        0.0,
        0.0,
        -0.05711605238912066,
        0.21776489971709825,
        0.0,
        0.0,
        0.5831352472305298,
        0.13456718623638153,
        1.0
      ],
      "name": "Cube_0"
    },
    {
      "mesh": 0,
      "name": "Object_4"
    }
  ],
  "samplers": [
    {
      "magFilter": 9729,
      "minFilter": 9987,
      "wrapS": 10497,
      "wrapT": 10497
    }
  ],
  "scene": 0,
  "scenes": [
    {
      "name": "Sketchfab_Scene",
      "nodes": [
        0
      ]
    }
  ],
  "textures": [
    {
      "sampler": 0,
      "source": 0
    },
    {
      "sampler": 0,
      "source": 1
    },
    {
      "sampler": 0,
      "source": 2
    }
  ]
}
