{
	"asset":{
		"generator":"Khronos glTF Blender I/O v4.4.55",
		"version":"2.0"
	},
	"scene":0,
	"scenes":[
		{
			"name":"Scene",
			"nodes":[
				6
			]
		}
	],
	"nodes":[
		{
			"mesh":0,
			"name":"Cube.003_TrabantInside_0"
		},
		{
			"children":[
				0
			],
			"name":"Cube.003",
			"rotation":[
				-0.70710688829422,
				0,
				0,
				0.7071066498756409
			],
			"scale":[
				100,
				99.99999237060547,
				99.99999237060547
			]
		},
		{
			"mesh":1,
			"name":"Plane.010_TrabantOutside_0"
		},
		{
			"children":[
				2
			],
			"name":"Plane.010",
			"rotation":[
				-0.70710688829422,
				0,
				0,
				0.7071066498756409
			],
			"scale":[
				100,
				99.99999237060547,
				99.99999237060547
			]
		},
		{
			"children":[
				1,
				3
			],
			"name":"RootNode"
		},
		{
			"children":[
				4
			],
			"name":"c4a7b5eea4494ac2b6ff2a0ad14e60ba.fbx",
			"rotation":[
				0.70710688829422,
				0,
				0,
				0.7071066498756409
			]
		},
		{
			"children":[
				5
			],
			"name":"Sketchfab_model",
			"rotation":[
				-0.70710688829422,
				0,
				0,
				0.7071066498756409
			]
		}
	],
	"materials":[
		{
			"doubleSided":true,
			"name":"TrabantInside",
			"normalTexture":{
				"index":0
			},
			"occlusionTexture":{
				"index":1
			},
			"pbrMetallicRoughness":{
				"baseColorTexture":{
					"index":2
				},
				"metallicRoughnessTexture":{
					"index":1
				}
			}
		},
		{
			"doubleSided":true,
			"name":"TrabantOutside",
			"normalTexture":{
				"index":3
			},
			"occlusionTexture":{
				"index":4
			},
			"pbrMetallicRoughness":{
				"baseColorTexture":{
					"index":5
				},
				"metallicRoughnessTexture":{
					"index":4
				}
			}
		}
	],
	"meshes":[
		{
			"name":"Cube.003_TrabantInside_0",
			"primitives":[
				{
					"attributes":{
						"POSITION":0,
						"NORMAL":1,
						"TEXCOORD_0":2
					},
					"indices":3,
					"material":0
				}
			]
		},
		{
			"name":"Plane.010_TrabantOutside_0",
			"primitives":[
				{
					"attributes":{
						"POSITION":4,
						"NORMAL":5,
						"TEXCOORD_0":6
					},
					"indices":7,
					"material":1
				}
			]
		}
	],
	"textures":[
		{
			"sampler":0,
			"source":0
		},
		{
			"sampler":0,
			"source":1
		},
		{
			"sampler":0,
			"source":2
		},
		{
			"sampler":0,
			"source":3
		},
		{
			"sampler":0,
			"source":4
		},
		{
			"sampler":0,
			"source":5
		}
	],
	"images":[
		{
			"mimeType":"image/png",
			"name":"TrabantInside_normal",
			"uri":"TrabantInside_normal.png"
		},
		{
			"mimeType":"image/png",
			"name":"TrabantInside_metallicRoughness",
			"uri":"TrabantInside_metallicRoughness.png"
		},
		{
			"mimeType":"image/png",
			"name":"TrabantInside_baseColor",
			"uri":"TrabantInside_baseColor.png"
		},
		{
			"mimeType":"image/png",
			"name":"TrabantOutside_normal",
			"uri":"TrabantOutside_normal.png"
		},
		{
			"mimeType":"image/png",
			"name":"TrabantOutside_metallicRoughness",
			"uri":"TrabantOutside_metallicRoughness.png"
		},
		{
			"mimeType":"image/png",
			"name":"TrabantOutside_baseColor",
			"uri":"TrabantOutside_baseColor.png"
		}
	],
	"accessors":[
		{
			"bufferView":0,
			"componentType":5126,
			"count":23911,
			"max":[
				1.0532554388046265,
				2.2408900260925293,
				2.2591209411621094
			],
			"min":[
				-0.9685481786727905,
				-1.6799511909484863,
				0.5424700975418091
			],
			"type":"VEC3"
		},
		{
			"bufferView":1,
			"componentType":5126,
			"count":23911,
			"type":"VEC3"
		},
		{
			"bufferView":2,
			"componentType":5126,
			"count":23911,
			"type":"VEC2"
		},
		{
			"bufferView":3,
			"componentType":5123,
			"count":99288,
			"type":"SCALAR"
		},
		{
			"bufferView":4,
			"componentType":5126,
			"count":41186,
			"max":[
				1.4374462366104126,
				3.720940351486206,
				2.7459492683410645
			],
			"min":[
				-1.4374462366104126,
				-3.0357508659362793,
				-0.0009607035317458212
			],
			"type":"VEC3"
		},
		{
			"bufferView":5,
			"componentType":5126,
			"count":41186,
			"type":"VEC3"
		},
		{
			"bufferView":6,
			"componentType":5126,
			"count":41186,
			"type":"VEC2"
		},
		{
			"bufferView":7,
			"componentType":5123,
			"count":170544,
			"type":"SCALAR"
		}
	],
	"bufferViews":[
		{
			"buffer":0,
			"byteLength":286932,
			"byteOffset":0,
			"target":34962
		},
		{
			"buffer":0,
			"byteLength":286932,
			"byteOffset":286932,
			"target":34962
		},
		{
			"buffer":0,
			"byteLength":191288,
			"byteOffset":573864,
			"target":34962
		},
		{
			"buffer":0,
			"byteLength":198576,
			"byteOffset":765152,
			"target":34963
		},
		{
			"buffer":0,
			"byteLength":494232,
			"byteOffset":963728,
			"target":34962
		},
		{
			"buffer":0,
			"byteLength":494232,
			"byteOffset":1457960,
			"target":34962
		},
		{
			"buffer":0,
			"byteLength":329488,
			"byteOffset":1952192,
			"target":34962
		},
		{
			"buffer":0,
			"byteLength":341088,
			"byteOffset":2281680,
			"target":34963
		}
	],
	"samplers":[
		{
			"magFilter":9729,
			"minFilter":9987
		}
	],
	"buffers":[
		{
			"byteLength":2622768,
			"uri":"trabant.bin"
		}
	]
}
